<svg id="Layer_1" data-name="Layer 1" xmlns="http://www.w3.org/2000/svg" viewBox="0 0 157.2 136.98"><path d="M115.2,44.6l-36-20.8a9.12,9.12,0,0,0-9.3,0L34,44.6a9.19,9.19,0,0,0-4.6,8V94.1a9.28,9.28,0,0,0,4.6,8l36,20.8a9.12,9.12,0,0,0,9.3,0l36-20.8a9.19,9.19,0,0,0,4.6-8V52.6A9.38,9.38,0,0,0,115.2,44.6Zm-8.8,7.5L77.3,35.2a5.18,5.18,0,0,0-5.2,0L42.9,51.9a5.25,5.25,0,0,0-2.6,4.5l-.1,33.7a5.41,5.41,0,0,0,2.6,4.6l29.1,16.9a5.54,5.54,0,0,0,5.3,0l29.2-16.8a5.25,5.25,0,0,0,2.6-4.5v-3a3.19,3.19,0,0,1-1.6-2.8,3.2,3.2,0,0,1,6.4,0,3.41,3.41,0,0,1-1.6,2.8v3a8.44,8.44,0,0,1-4.2,7.3L78.8,114.4a8.57,8.57,0,0,1-8.4,0L41.2,97.5A8.44,8.44,0,0,1,37,90.2l.1-33.7a8.44,8.44,0,0,1,4.2-7.3L70.5,32.4a8.4,8.4,0,0,1,8.4,0L108,49.3a8.44,8.44,0,0,1,4.2,7.3v2.9a3.28,3.28,0,0,1,1.5,2.7,3.2,3.2,0,1,1-4.7-2.8V56.6A5,5,0,0,0,106.4,52.1Zm-9.6,7.4-20.6-12a3.39,3.39,0,0,0-3.1,0L52.4,59.3A3.15,3.15,0,0,0,50.8,62l-.1,23.9a3.28,3.28,0,0,0,1.5,2.7l20.6,12a2.89,2.89,0,0,0,3.1,0L96.6,88.7A2.91,2.91,0,0,0,98,87a3.34,3.34,0,0,1-1.2-2.5,3.2,3.2,0,0,1,6.4,0,3.45,3.45,0,0,1-1.7,2.9,6.77,6.77,0,0,1-3.2,4.4L77.6,103.7a6.5,6.5,0,0,1-6.6,0l-20.6-12A6.76,6.76,0,0,1,47.1,86l.2-24a6.76,6.76,0,0,1,3.3-5.7L71.3,44.4a6.5,6.5,0,0,1,6.6,0l20.6,12a6.92,6.92,0,0,1,3.2,4.6,3.19,3.19,0,0,1,1.6,2.8,3.2,3.2,0,0,1-6.4,0,3.32,3.32,0,0,1,1.3-2.6A2.91,2.91,0,0,0,96.8,59.5Z" transform="translate(-1.5 -22.52)"/><path d="M10.6,159.5c-4.1,0-9.1-2.4-9.1-7.7v-8.1c0-5.4,5.1-7.7,9.1-7.7,4.2,0,8.4,2.1,8.9,6.5,0,.8-.3,1-1.1,1H15.1c-.7,0-.8-.6-1-1.1-.7-1.1-1.7-1.6-3.5-1.6-2.3,0-3.8,1.3-3.8,3.4v7.1c0,2.2,1.5,3.4,3.8,3.4,1.8,0,3.3-.7,3.6-2.3.1-.7.2-1.2.9-1.2h3.3c.8,0,1,.3,1,1.2C19.5,156.7,14.8,159.5,10.6,159.5Z" transform="translate(-1.5 -22.52)"/><path d="M47.6,151.7c0,5.4-5.1,7.7-9.2,7.7s-9.1-2.3-9.1-7.7v-8.1c0-5.4,5-7.7,9.1-7.7s9.2,2.3,9.2,7.7Zm-5.3-7.5c0-2.2-1.6-3.4-3.8-3.4s-3.8,1.3-3.8,3.4v7.1c0,2.2,1.6,3.4,3.8,3.4s3.8-1.3,3.8-3.4Z" transform="translate(-1.5 -22.52)"/><path d="M76.4,137.5V158c0,.6-.2,1-1,1H72.3c-.9,0-1.1-.5-1.5-1.2l-7.2-11.7V158c0,.8-.4,1-1,1H59.2c-.6,0-1-.2-1-1V137.5c0-.6.2-1,1-1h3.2c.9,0,1.1.5,1.5,1.2l7.2,11.7V137.6c0-.8.4-1,1-1h3.3C76,136.5,76.4,136.7,76.4,137.5Z" transform="translate(-1.5 -22.52)"/><path d="M96.1,159.5c-4.1,0-9.1-2.4-9.1-7.7v-8.1c0-5.4,5.1-7.7,9.1-7.7,4.2,0,8.4,2.1,8.9,6.5,0,.8-.3,1-1.1,1h-3.3c-.7,0-.8-.6-1-1.1-.7-1.1-1.7-1.6-3.5-1.6-2.3,0-3.8,1.3-3.8,3.4v7.1c0,2.2,1.5,3.4,3.8,3.4,1.8,0,3.3-.7,3.6-2.3.1-.7.2-1.2.9-1.2h3.3c.8,0,1,.3,1,1.2C105,156.7,100.4,159.5,96.1,159.5Z" transform="translate(-1.5 -22.52)"/><path d="M134.2,158.9h-3.6c-.8,0-1-.2-1.3-1l-1-2.7H120l-1,2.7c-.3.8-.5,1-1.3,1h-3.6c-.8,0-.8-.5-.6-1l7.6-20.4c.3-.7.6-1.1,1.4-1.1h3.3c.8,0,1.1.3,1.4,1.1l7.5,20.4C135,158.4,135,158.9,134.2,158.9Zm-7.4-8.4-2.6-7.5-2.6,7.5Z" transform="translate(-1.5 -22.52)"/><path d="M158.7,137.5v2.8c0,.6-.2,1-1,1h-5.2V158c0,.8-.4,1-1,1h-3.4c-.6,0-1-.2-1-1V141.4h-5.3c-.8,0-1-.4-1-1v-2.8c0-.6.2-1,1-1h15.8C158.5,136.5,158.7,136.9,158.7,137.5Z" transform="translate(-1.5 -22.52)"/></svg>